<?xml version="1.0" encoding="UTF-8"?>
<svg xmlns="http://www.w3.org/2000/svg" xml:space="preserve" width="0.5in" height="0.5in" version="1.1" style="shape-rendering:geometricPrecision; text-rendering:geometricPrecision; image-rendering:optimizeQuality; fill-rule:evenodd; clip-rule:evenodd"
viewBox="0 0 500 500"
 xmlns:xlink="http://www.w3.org/1999/xlink">
 <defs>
  <style type="text/css">
   <![CDATA[
    .fil0 {fill:white}
   ]]>
  </style>
 </defs>
 <g id="Layer_x0020_1">
  <path class="fil0" d="M212 496c-1,-3 -1,-37 -1,-43l0 -87c0,-14 1,-29 0,-43l-62 0 0 -72 62 0c1,-3 0,-32 0,-37 0,-23 0,-46 10,-67 5,-8 10,-16 16,-22 12,-11 29,-21 53,-23 20,-3 50,0 70,4l0 60c-17,1 -39,-2 -54,5 -9,5 -14,13 -16,23 -2,6 -1,11 -1,18 0,13 0,26 0,39l68 0 -11 72 -57 0 0 173 -2 0 2 0c10,-1 37,-9 47,-13 16,-6 34,-14 49,-24 5,-3 15,-11 19,-14 1,-1 1,-1 2,-2 1,-1 3,-2 4,-3 6,-5 10,-9 15,-14 6,-6 9,-10 15,-16 9,-11 17,-23 24,-35 25,-41 36,-94 32,-144 -2,-33 -12,-66 -26,-92 -4,-8 -6,-11 -10,-19 -4,-7 -18,-25 -24,-31 -3,-3 -5,-6 -9,-10 -5,-5 -10,-10 -15,-15 -1,-1 -3,-2 -4,-3 -15,-13 -41,-28 -60,-37 -63,-27 -133,-27 -196,0 -14,6 -27,14 -38,21 -14,9 -22,16 -34,27 -19,17 -38,44 -50,67 -31,59 -36,132 -13,196 6,16 19,43 30,58 5,6 9,12 13,17 3,2 4,5 7,8 3,2 5,5 7,7 4,5 7,7 12,11l29 23c8,5 19,11 29,16 6,3 13,6 20,8 16,6 30,10 48,13z"/>
 </g>
</svg>
