<?xml version="1.0" encoding="UTF-8"?>
<svg xmlns="http://www.w3.org/2000/svg" xml:space="preserve" width="0.5in" height="0.5in" version="1.1" style="shape-rendering:geometricPrecision; text-rendering:geometricPrecision; image-rendering:optimizeQuality; fill-rule:evenodd; clip-rule:evenodd"
viewBox="0 0 500 500"
 xmlns:xlink="http://www.w3.org/1999/xlink">
 <defs>
  <style type="text/css">
   <![CDATA[
    .fil0 {fill:white}
   ]]>
  </style>
 </defs>
 <g id="Layer_x0020_1">
  <g id="_2868476316288">
   <path class="fil0" d="M132 48c32,-2 68,0 100,0 34,0 67,0 101,0 30,0 57,-2 82,19 6,5 9,7 14,12 28,33 23,59 23,102l0 152c0,26 2,44 -9,67 -2,3 -3,5 -5,8 -2,3 -3,5 -5,7 -33,42 -67,37 -115,37l-151 0c-32,0 -56,2 -82,-19 -42,-33 -37,-67 -37,-115l0 -151c0,-32 -2,-56 19,-82 16,-21 38,-35 65,-37zm3 -43c-29,2 -47,8 -70,22 -17,11 -33,29 -43,47 -8,14 -13,30 -16,47 -3,20 -1,151 -1,182 0,20 -1,42 0,62 2,37 13,61 35,86 19,23 51,38 81,43 19,3 96,1 121,1 40,0 83,2 123,0 27,-1 48,-9 70,-22 2,-2 6,-5 8,-6 28,-23 45,-50 51,-88 3,-20 1,-152 1,-182 0,-65 6,-100 -35,-149 -9,-10 -21,-19 -35,-27 -14,-7 -28,-12 -46,-15 -21,-3 -151,-2 -182,-2 -20,0 -43,-1 -62,1z"/>
   <path class="fil0" d="M168 260c-6,-49 31,-88 73,-92 48,-6 87,31 91,73 6,48 -31,87 -73,91 -48,6 -87,-31 -91,-72zm73 -136c-32,2 -66,19 -85,41 -9,11 -18,23 -24,39 -13,37 -11,69 6,104 22,44 70,71 121,68 41,-3 74,-26 92,-50 18,-25 27,-52 25,-85 -2,-32 -19,-67 -42,-85 -27,-22 -54,-35 -93,-32z"/>
   <path class="fil0" d="M375 87c-10,3 -14,6 -19,13 -16,22 3,57 33,49 15,-3 28,-18 24,-38 -3,-14 -19,-29 -38,-24z"/>
  </g>
 </g>
</svg>
